<svg width="20" height="22" viewBox="0 0 20 22" fill="none" xmlns="http://www.w3.org/2000/svg">
<path fill-rule="evenodd" clip-rule="evenodd" d="M4.58333 15.3333C4.58333 14.7375 5.07083 14.25 5.66667 14.25C6.2625 14.25 6.75 14.7375 6.75 15.3333C6.75 15.9292 6.2625 16.4167 5.66667 16.4167C5.07083 16.4167 4.58333 15.9292 4.58333 15.3333ZM10 14.25H14.3333C14.9292 14.25 15.4167 14.7375 15.4167 15.3333C15.4167 15.9292 14.9292 16.4167 14.3333 16.4167H10C9.40417 16.4167 8.91667 15.9292 8.91667 15.3333C8.91667 14.7375 9.40417 14.25 10 14.25ZM16.5 19.6667H3.5C2.90308 19.6667 2.41667 19.1802 2.41667 18.5833V12.0833H17.5833V18.5833C17.5833 19.1802 17.0969 19.6667 16.5 19.6667ZM3.5 4.5H4.58333V5.58333C4.58333 6.17917 5.07083 6.66667 5.66667 6.66667C6.2625 6.66667 6.75 6.17917 6.75 5.58333V4.5H13.25V5.58333C13.25 6.17917 13.7375 6.66667 14.3333 6.66667C14.9292 6.66667 15.4167 6.17917 15.4167 5.58333V4.5H16.5C17.0969 4.5 17.5833 4.98642 17.5833 5.58333V9.91667H2.41667V5.58333C2.41667 4.98642 2.90308 4.5 3.5 4.5ZM16.5 2.33333H15.4167V1.25C15.4167 0.654166 14.9292 0.166666 14.3333 0.166666C13.7375 0.166666 13.25 0.654166 13.25 1.25V2.33333H6.75V1.25C6.75 0.654166 6.2625 0.166666 5.66667 0.166666C5.07083 0.166666 4.58333 0.654166 4.58333 1.25V2.33333H3.5C1.70817 2.33333 0.25 3.7915 0.25 5.58333V18.5833C0.25 20.3752 1.70817 21.8333 3.5 21.8333H16.5C18.2918 21.8333 19.75 20.3752 19.75 18.5833V5.58333C19.75 3.7915 18.2918 2.33333 16.5 2.33333Z" fill="black"/>
</svg>
