<svg width="22" height="22" viewBox="0 0 22 22" fill="none" xmlns="http://www.w3.org/2000/svg">
<path fill-rule="evenodd" clip-rule="evenodd" d="M20.5564 13.2291C19.9898 13.0276 19.3723 13.3233 19.1741 13.8888C17.9521 17.3447 14.6663 19.6662 11.0003 19.6662C6.22174 19.6662 2.33366 15.7792 2.33366 10.9996C2.33366 7.33357 4.65524 4.04782 8.11107 2.82582C8.67549 2.62757 8.97124 2.00899 8.77191 1.44457C8.57257 0.881239 7.95399 0.584405 7.38958 0.784822C3.06924 2.31124 0.166992 6.41599 0.166992 10.9996C0.166992 16.9731 5.02683 21.8329 11.0003 21.8329C15.5839 21.8329 19.6887 18.9317 21.2162 14.6103C21.4155 14.047 21.1208 13.4284 20.5564 13.2291ZM13.1667 8.83334V2.41026C16.4827 2.88692 19.1131 5.51617 19.5897 8.83334H13.1667ZM12.0833 0.166672C11.4853 0.166672 11 0.650922 11 1.25001V9.91667C11 10.5158 11.4853 11 12.0833 11H20.75C21.348 11 21.8333 10.5158 21.8333 9.91667C21.8333 4.54009 17.4588 0.166672 12.0833 0.166672Z" fill="black"/>
</svg>
