<svg width="20" height="20" viewBox="0 0 20 20" fill="none" xmlns="http://www.w3.org/2000/svg">
<path fill-rule="evenodd" clip-rule="evenodd" d="M5.66667 7.83333C6.56367 7.83333 7.29167 7.10533 7.29167 6.20833C7.29167 5.31133 6.56367 4.58333 5.66667 4.58333C4.76967 4.58333 4.04167 5.31133 4.04167 6.20833C4.04167 7.10533 4.76967 7.83333 5.66667 7.83333ZM16.5 17.5833H4.10775L11.6965 11.2512C11.963 11.0248 12.4462 11.0259 12.7072 11.2502L17.5833 15.4102V16.5C17.5833 17.098 17.098 17.5833 16.5 17.5833ZM3.5 2.41667H16.5C17.098 2.41667 17.5833 2.902 17.5833 3.5V12.561L14.1134 9.60133C13.0409 8.68917 11.3628 8.68917 10.3001 9.59483L2.41667 16.1728V3.5C2.41667 2.902 2.902 2.41667 3.5 2.41667ZM16.5 0.25H3.5C1.70817 0.25 0.25 1.70817 0.25 3.5V16.5C0.25 18.2918 1.70817 19.75 3.5 19.75H16.5C18.2918 19.75 19.75 18.2918 19.75 16.5V3.5C19.75 1.70817 18.2918 0.25 16.5 0.25Z" fill="black"/>
</svg>
