<svg width="22" height="18" viewBox="0 0 22 18" fill="none" xmlns="http://www.w3.org/2000/svg">
<path fill-rule="evenodd" clip-rule="evenodd" d="M13.5232 17.6672C13.4506 17.6672 13.3758 17.664 13.3011 17.6564C12.3477 17.5621 11.6002 16.8894 11.3944 15.9415L8.48783 2.51679L5.49458 9.43062C5.32233 9.82712 4.93125 10.0839 4.50008 10.0839H1.25008C0.650998 10.0839 0.166748 9.59854 0.166748 9.00054C0.166748 8.40146 0.650998 7.91721 1.25008 7.91721H3.78941L6.50425 1.64579C6.88883 0.761791 7.736 0.247208 8.69908 0.343625C9.65241 0.437875 10.3999 1.11062 10.6057 2.05854L13.5123 15.4832L16.5056 8.56937C16.6778 8.17287 17.0678 7.91721 17.5001 7.91721H20.7501C21.3492 7.91721 21.8334 8.40146 21.8334 9.00054C21.8334 9.59854 21.3492 10.0839 20.7501 10.0839H18.2107L15.4959 16.3542C15.1417 17.17 14.3822 17.6672 13.5232 17.6672Z" fill="black"/>
</svg>
