<svg width="22" height="22" viewBox="0 0 22 22" fill="none" xmlns="http://www.w3.org/2000/svg">
<path fill-rule="evenodd" clip-rule="evenodd" d="M2.76969 10.5906C3.97869 11.0055 4.94178 12.0174 5.34478 13.3L5.38811 13.43C5.84961 14.7907 5.66219 16.2554 4.88869 17.3539C4.74786 17.5532 4.77928 17.7915 4.92769 17.9042L7.17236 19.6094C7.25144 19.6689 7.32836 19.6689 7.37603 19.6635C7.43019 19.6549 7.50928 19.6256 7.57319 19.5346L7.82344 19.1793C8.56986 18.1209 9.77236 17.4676 11.042 17.4308C12.4677 17.4015 13.7482 18.0548 14.5455 19.2064L14.6734 19.3916C14.7373 19.4826 14.8153 19.5129 14.8705 19.5216C14.9182 19.5314 14.9962 19.5281 15.0742 19.4674L17.3069 17.7829C17.4629 17.6659 17.4976 17.4156 17.3817 17.2477L17.1 16.8414C16.3742 15.7928 16.1586 14.4321 16.5237 13.2025C16.9202 11.8635 17.9288 10.804 19.2234 10.3707L19.4411 10.297C19.6155 10.2396 19.7098 10.0229 19.648 9.82361L18.7954 7.09253C18.7554 6.9647 18.673 6.90728 18.6275 6.88345C18.5625 6.84986 18.4921 6.84445 18.4249 6.8672L18.0566 6.98961C16.7967 7.40886 15.4068 7.18136 14.3397 6.37861L14.2227 6.29086C13.2087 5.5282 12.6053 4.29861 12.6096 3.00294L12.6118 2.69961C12.6118 2.55553 12.5435 2.46561 12.5024 2.42445C12.4634 2.38436 12.3973 2.33669 12.3041 2.33669L9.54486 2.33345C9.37586 2.33345 9.23828 2.49486 9.23719 2.6942L9.23611 2.95636C9.23069 4.27261 8.61428 5.52495 7.58728 6.3082L7.44753 6.41436C6.31761 7.27345 4.84428 7.51611 3.50961 7.06111C3.45869 7.04378 3.41103 7.04703 3.36553 7.07086C3.33086 7.0882 3.26803 7.13261 3.23769 7.23119L2.35261 10.0435C2.28869 10.2483 2.39378 10.4617 2.59203 10.5299L2.76969 10.5906ZM7.33161 21.8334C6.80511 21.8334 6.29378 21.6623 5.86261 21.334L3.61794 19.6299C2.54544 18.8174 2.30819 17.2542 3.08819 16.1459C3.49336 15.5718 3.57678 14.834 3.33844 14.1342L3.27886 13.9522C3.08061 13.3217 2.62778 12.832 2.06769 12.6403H2.06661L1.89003 12.5785C0.570526 12.1268 -0.133641 10.7282 0.285609 9.39353L1.16961 6.58228C1.37003 5.94636 1.80228 5.43286 2.38728 5.13711C2.95928 4.84894 3.60603 4.80453 4.21053 5.01145C4.85944 5.23244 5.57986 5.1122 6.13561 4.68969L6.27536 4.58353C6.76936 4.20653 7.06728 3.59444 7.06944 2.9477L7.07053 2.68661C7.07594 1.29561 8.18636 0.166779 9.54377 0.166779H9.54811L12.3074 0.170029C12.9595 0.171112 13.5749 0.428945 14.0385 0.895862C14.5184 1.37795 14.7806 2.02253 14.7784 2.71045L14.7763 3.0127C14.7741 3.62586 15.0547 4.20545 15.5281 4.56078L15.644 4.64853C16.1413 5.02228 16.7891 5.12953 17.3709 4.93453L17.7381 4.81211C18.3632 4.60411 19.0284 4.65503 19.6144 4.95511C20.2157 5.26278 20.6599 5.79253 20.8635 6.44794L21.7161 9.17903C22.1278 10.4985 21.4149 11.922 20.129 12.3521L19.9113 12.4247C19.2873 12.6349 18.7965 13.1549 18.6004 13.8179C18.4206 14.4256 18.5246 15.094 18.881 15.6075L19.1627 16.0138C19.9362 17.1318 19.6892 18.7004 18.6124 19.5119L16.3796 21.1975C15.8434 21.6027 15.1858 21.7663 14.526 21.6612C13.8609 21.5539 13.2802 21.1856 12.8913 20.6244L12.7634 20.4381C12.3843 19.8921 11.7776 19.5606 11.1417 19.5964C10.5047 19.6137 9.95436 19.9159 9.59469 20.4273L9.34444 20.7826C8.95227 21.3384 8.37052 21.7013 7.70861 21.8053C7.58186 21.8248 7.45619 21.8334 7.33161 21.8334ZM11 9.375C10.1041 9.375 9.37499 10.1041 9.37499 11C9.37499 11.8959 10.1041 12.625 11 12.625C11.8959 12.625 12.625 11.8959 12.625 11C12.625 10.1041 11.8959 9.375 11 9.375ZM11 14.7917C8.90916 14.7917 7.20832 13.0908 7.20832 11C7.20832 8.90917 8.90916 7.20834 11 7.20834C13.0908 7.20834 14.7917 8.90917 14.7917 11C14.7917 13.0908 13.0908 14.7917 11 14.7917Z" fill="black"/>
</svg>
