<svg width="17" height="22" viewBox="0 0 17 22" fill="none" xmlns="http://www.w3.org/2000/svg">
<path fill-rule="evenodd" clip-rule="evenodd" d="M16.5833 20.6296C16.5833 21.2941 16.0645 21.8333 15.4226 21.8333C14.7807 21.8333 14.2619 21.2941 14.2619 20.6296C14.2619 17.311 11.6584 14.6111 8.45831 14.6111C5.25822 14.6111 2.65474 17.311 2.65474 20.6296C2.65474 21.2941 2.1359 21.8333 1.49403 21.8333C0.852152 21.8333 0.333313 21.2941 0.333313 20.6296C0.333313 15.9833 3.97912 12.2037 8.45831 12.2037C12.9375 12.2037 16.5833 15.9833 16.5833 20.6296ZM8.45831 2.57406C9.73858 2.57406 10.7797 3.65379 10.7797 4.98147C10.7797 6.30916 9.73858 7.38888 8.45831 7.38888C7.17804 7.38888 6.13688 6.30916 6.13688 4.98147C6.13688 3.65379 7.17804 2.57406 8.45831 2.57406ZM8.45831 9.79629C11.0188 9.79629 13.1012 7.63684 13.1012 4.98147C13.1012 2.3261 11.0188 0.166656 8.45831 0.166656C5.89778 0.166656 3.81546 2.3261 3.81546 4.98147C3.81546 7.63684 5.89778 9.79629 8.45831 9.79629Z" fill="black"/>
</svg>
